# Blender 3.4.0
# www.blender.org
mtllib DROPLET2.mtl.mtl.mtl
o Cube.003
v -0.005279 0.164516 0.143228
v -0.005093 0.211527 0.141904
v 0.014629 0.178277 0.009486
v 0.014516 0.205524 0.002120
v 0.047967 0.158584 0.158200
v 0.047947 0.207215 0.155952
v 0.032884 0.179070 0.009469
v 0.033690 0.204209 0.000037
v 0.002077 0.168531 0.059505
v -0.009554 0.186761 0.147036
v 0.003097 0.215589 0.057591
v 0.012868 0.191155 0.001981
v 0.024211 0.176095 0.001873
v 0.024359 0.210920 -0.018297
v 0.034925 0.190568 -0.000537
v 0.042529 0.169634 0.059497
v 0.042116 0.212303 0.057096
v 0.052171 0.180459 0.163717
v 0.021093 0.157145 0.154103
v 0.021196 0.212191 0.152003
v 0.023543 0.221194 0.053766
v 0.023244 0.161623 0.056976
v 0.020933 0.180714 0.166808
v 0.051188 0.191020 0.060545
v 0.024166 0.190001 -0.030419
v -0.009762 0.192377 0.063867
v -0.008448 0.162974 0.110091
v -0.007907 0.200591 0.146928
v 0.012280 0.207152 0.016193
v 0.013480 0.183136 0.005325
v 0.018631 0.176705 0.004652
v 0.030266 0.207618 -0.009624
v 0.034162 0.183267 0.003926
v 0.034592 0.177407 0.021692
v 0.052460 0.220096 0.113721
v 0.050545 0.166567 0.163543
v 0.036867 0.156553 0.159177
v 0.005598 0.212038 0.148294
v 0.012067 0.176461 0.021337
v -0.008003 0.172978 0.147646
v -0.007817 0.221295 0.108012
v 0.013323 0.199749 0.000786
v 0.029537 0.177200 0.004424
v 0.018562 0.208195 -0.007497
v 0.034732 0.198689 -0.001980
v 0.052656 0.159875 0.117035
v 0.034953 0.205357 0.015216
v 0.050531 0.195173 0.162261
v 0.005443 0.160383 0.149923
v 0.036894 0.209183 0.156986
v 0.022835 0.232917 0.104923
v 0.024076 0.212105 0.008204
v 0.033450 0.218378 0.054956
v 0.013195 0.220357 0.054753
v 0.022312 0.150895 0.109154
v 0.023755 0.172513 0.019344
v 0.012492 0.163009 0.057361
v 0.033519 0.163907 0.058118
v 0.004151 0.183219 0.159938
v 0.037888 0.179129 0.170264
v 0.020943 0.166577 0.165020
v 0.020983 0.196388 0.163981
v 0.065217 0.188428 0.120684
v 0.038594 0.190800 0.018078
v 0.048944 0.179108 0.060643
v 0.048539 0.202969 0.059210
v 0.030933 0.190358 -0.018003
v 0.017861 0.190801 -0.015237
v 0.024373 0.180752 -0.015166
v 0.024124 0.203550 -0.033969
v 0.007599 0.191515 0.019645
v -0.021515 0.191364 0.113170
v -0.006281 0.178372 0.062170
v -0.005364 0.205953 0.061139
v -0.017624 0.207221 0.112383
v -0.017925 0.175675 0.113333
v 0.008717 0.182755 0.020613
v 0.018081 0.201226 -0.016061
v 0.018300 0.181708 -0.007780
v 0.030403 0.181626 -0.009596
v 0.037797 0.198879 0.016336
v 0.037483 0.183149 0.020179
v 0.061703 0.172007 0.120919
v 0.037719 0.195312 0.165760
v 0.037708 0.165462 0.167009
v 0.004413 0.169794 0.156449
v 0.029847 0.173931 0.020301
v 0.017433 0.173430 0.020304
v 0.005983 0.154578 0.109450
v 0.017678 0.210883 0.011643
v 0.030211 0.209660 0.011357
v 0.038507 0.228709 0.109472
v 0.006742 0.229436 0.106180
v 0.038463 0.152627 0.113615
v 0.004486 0.199016 0.155560
v 0.061550 0.204757 0.119136
v 0.031111 0.200876 -0.019752
v 0.008856 0.200410 0.018099
v -0.003637 0.222974 0.082140
v 0.049044 0.162686 0.083904
v -0.019991 0.192282 0.091643
v -0.005143 0.162890 0.085069
v 0.048018 0.218809 0.081597
v 0.023472 0.228665 0.076885
v 0.023185 0.153958 0.078975
v 0.062448 0.191034 0.087669
v -0.015749 0.209179 0.088625
v -0.016362 0.176044 0.089840
v 0.058997 0.174820 0.086767
v 0.009346 0.155371 0.079350
v 0.036219 0.225415 0.078890
v 0.010294 0.228284 0.077267
v 0.036546 0.156300 0.081100
v 0.057889 0.207562 0.085015
v -0.007656 0.163451 0.132039
v 0.050773 0.212647 0.141870
v 0.021642 0.223481 0.134162
v 0.021428 0.152669 0.137118
v 0.060732 0.183657 0.148180
v -0.007361 0.216021 0.130456
v 0.050827 0.158428 0.144475
v -0.017523 0.189138 0.133180
v -0.015171 0.204658 0.130674
v -0.015338 0.174813 0.131469
v 0.058617 0.169115 0.146472
v 0.005031 0.156278 0.132178
v 0.038082 0.221047 0.136994
v 0.005378 0.222915 0.129755
v 0.038040 0.153140 0.140174
v 0.058562 0.200233 0.144936
v 0.007933 0.173460 0.038878
v 0.037830 0.208038 0.034680
v 0.023760 0.215766 0.030828
v 0.023492 0.167630 0.036889
v 0.043785 0.190954 0.037685
v 0.008486 0.210187 0.035784
v 0.037860 0.174253 0.038526
v 0.000691 0.191908 0.039923
v 0.002605 0.181391 0.039818
v 0.042202 0.200359 0.036342
v 0.042237 0.181686 0.038510
v 0.031325 0.169522 0.037600
v 0.015323 0.168816 0.037342
v 0.015759 0.214670 0.032624
v 0.031473 0.213370 0.032084
v 0.003053 0.202296 0.038355
vn -0.9411 0.2018 -0.2715
vn -0.8271 0.5146 -0.2258
vn -0.8645 0.4557 -0.2123
vn -0.9541 0.1418 -0.2637
vn 0.9248 0.1186 -0.3614
vn 0.8307 0.5331 -0.1605
vn 0.8910 0.4357 -0.1272
vn 0.9748 0.1175 -0.1897
vn 0.9021 0.3066 0.3036
vn 0.6541 0.6755 0.3403
vn 0.5097 0.6107 0.6061
vn 0.5909 0.2968 0.7501
vn -0.4727 0.3026 0.8276
vn -0.3397 0.6350 0.6938
vn -0.6023 0.5849 0.5433
vn -0.7025 0.2672 0.6596
vn 0.1904 -0.9770 0.0966
vn 0.6598 -0.7423 0.1164
vn 0.5470 -0.7234 0.4212
vn 0.0459 -0.8290 0.5574
vn -0.2924 0.8857 0.3606
vn -0.6710 0.6657 0.3265
vn 0.2411 0.8910 0.3847
vn -0.0382 0.9082 0.4167
vn -0.1379 0.6981 0.7026
vn 0.0863 0.6734 0.7342
vn 0.5370 0.8185 -0.2040
vn 0.0867 0.9749 -0.2050
vn 0.1006 0.9560 -0.2756
vn 0.4686 0.8407 -0.2712
vn -0.4106 0.8804 -0.2372
vn -0.7442 0.6033 -0.2867
vn -0.6755 0.6471 -0.3536
vn -0.3216 0.8935 -0.3134
vn -0.3760 -0.9179 0.1265
vn -0.1262 -0.9817 0.1428
vn -0.2510 -0.8272 0.5028
vn -0.4696 -0.7167 0.5156
vn -0.3615 -0.8850 -0.2933
vn 0.0498 -0.9589 -0.2794
vn 0.0544 -0.9487 -0.3113
vn -0.3459 -0.8793 -0.3275
vn 0.4383 -0.8567 -0.2720
vn 0.7355 -0.6180 -0.2775
vn 0.7001 -0.6334 -0.3296
vn 0.4037 -0.8599 -0.3125
vn -0.5559 -0.2921 0.7782
vn -0.5121 0.0135 0.8588
vn -0.8020 0.0116 0.5972
vn -0.7521 -0.2515 0.6091
vn 0.0867 -0.3150 0.9451
vn 0.0983 0.0163 0.9950
vn -0.2795 0.0136 0.9600
vn -0.3138 -0.3293 0.8906
vn 0.0962 0.3279 0.9398
vn -0.2419 0.3341 0.9110
vn 0.9263 -0.3006 0.2272
vn 0.9401 0.0079 0.3407
vn 0.6952 0.0134 0.7187
vn 0.6092 -0.2824 0.7410
vn 0.9081 -0.3073 -0.2846
vn 0.9599 -0.0230 -0.2794
vn 0.9369 -0.0030 -0.3496
vn 0.8870 -0.3066 -0.3452
vn 0.9363 0.2399 -0.2564
vn 0.7979 0.5581 -0.2278
vn 0.7329 0.6121 -0.2971
vn 0.8988 0.2926 -0.3263
vn 0.8328 -0.4821 -0.2722
vn 0.9157 -0.2112 -0.3420
vn 0.9738 -0.1033 -0.2027
vn 0.9168 -0.3481 -0.1956
vn -0.8274 -0.4628 -0.3183
vn -0.9264 -0.1719 -0.3351
vn -0.1204 -0.2931 -0.9485
vn -0.1219 -0.8371 -0.5332
vn -0.9406 0.1413 -0.3086
vn -0.8082 0.5465 -0.2193
vn -0.1105 0.9091 -0.4017
vn -0.0637 0.1061 -0.9923
vn -0.9114 -0.2856 -0.2963
vn -0.9542 -0.0266 -0.2981
vn -0.9566 -0.0794 -0.2805
vn -0.9026 -0.3197 -0.2884
vn -0.9175 -0.3265 -0.2270
vn -0.9856 0.0070 -0.1690
vn -0.9306 0.0062 -0.3661
vn -0.8771 -0.3079 -0.3687
vn -0.9126 0.3386 -0.2292
vn -0.6736 0.6992 -0.2398
vn -0.8726 0.3152 -0.3730
vn -0.9376 0.0074 0.3476
vn -0.8999 0.3118 0.3048
vn -0.9324 0.3548 0.0691
vn -0.9984 0.0059 0.0570
vn -0.6805 0.7304 0.0580
vn -0.6848 -0.6941 -0.2221
vn -0.6766 -0.6491 -0.3478
vn -0.7183 -0.6754 0.1668
vn -0.9222 -0.2967 0.2481
vn -0.9399 -0.3398 0.0328
vn -0.6932 -0.7205 -0.0200
vn -0.7336 -0.6217 -0.2744
vn -0.7502 -0.6079 -0.2602
vn -0.7019 -0.6381 -0.3165
vn -0.8891 -0.2980 -0.3473
vn -0.9325 0.0001 -0.3612
vn -0.5499 -0.7910 -0.2681
vn 0.0021 -0.9655 -0.2605
vn 0.5789 -0.7894 -0.2042
vn 0.7764 -0.6033 -0.1823
vn 0.9660 0.1729 -0.1921
vn 0.9742 -0.0551 -0.2189
vn 0.8596 0.4851 -0.1604
vn 0.9217 -0.3127 -0.2297
vn 0.7589 -0.6099 -0.2284
vn 0.6872 -0.6772 -0.2631
vn 0.9138 -0.3172 -0.2537
vn 0.9434 -0.3317 -0.0000
vn 0.6808 -0.7297 -0.0636
vn 0.9799 0.0083 -0.1995
vn 0.9992 0.0066 0.0390
vn -0.6870 -0.6219 0.3758
vn 0.4655 -0.8567 -0.2220
vn 0.0436 -0.9709 -0.2355
vn -0.3746 -0.8930 -0.2495
vn -0.3519 -0.9074 -0.2297
vn -0.3630 -0.9317 -0.0122
vn 0.0305 -0.9737 -0.2256
vn -0.0408 -0.9988 -0.0275
vn -0.5197 0.8383 -0.1645
vn 0.0632 0.9914 -0.1142
vn 0.6069 0.7857 -0.1193
vn 0.7089 0.6629 -0.2409
vn 0.4301 0.8741 -0.2256
vn 0.3702 0.9260 0.0739
vn 0.7174 0.6951 0.0467
vn 0.0981 0.9692 -0.2260
vn 0.0421 0.9970 0.0643
vn -0.2956 0.9251 -0.2381
vn -0.3103 0.9465 0.0891
vn 0.3638 -0.9002 -0.2395
vn 0.2948 -0.9543 -0.0490
vn 0.9130 0.3236 -0.2487
vn 0.9382 0.3415 0.0560
vn -0.9024 0.2766 -0.3304
vt 0.421952 0.424547
vt 0.417876 0.425992
vt 0.412040 0.401244
vt 0.408380 0.402729
vt 0.440166 0.302032
vt 0.446433 0.301511
vt 0.439969 0.254873
vt 0.445522 0.254709
vt 0.418008 0.409974
vt 0.419921 0.425104
vt 0.410255 0.413040
vt 0.410353 0.402320
vt 0.410765 0.391722
vt 0.402644 0.395050
vt 0.442759 0.255200
vt 0.436047 0.271813
vt 0.449901 0.271161
vt 0.443007 0.301849
vt 0.428301 0.431763
vt 0.418464 0.435592
vt 0.396999 0.413610
vt 0.428084 0.401226
vt 0.424352 0.435050
vt 0.443000 0.271817
vt 0.406220 0.392254
vt 0.414508 0.412374
vt 0.421005 0.418273
vt 0.419114 0.425707
vt 0.408664 0.405273
vt 0.411223 0.401887
vt 0.411654 0.397864
vt 0.447496 0.250654
vt 0.398221 0.387917
vt 0.441469 0.255122
vt 0.438723 0.257970
vt 0.449408 0.289867
vt 0.441799 0.302256
vt 0.438079 0.306148
vt 0.432745 0.438902
vt 0.418286 0.429533
vt 0.413633 0.403268
vt 0.420953 0.425098
vt 0.414006 0.420956
vt 0.409418 0.402619
vt 0.409000 0.383568
vt 0.437787 0.250875
vt 0.406280 0.400044
vt 0.443999 0.255056
vt 0.436999 0.290800
vt 0.446817 0.257719
vt 0.444421 0.301987
vt 0.424188 0.427334
vt 0.420375 0.443903
vt 0.448819 0.305542
vt 0.405499 0.429997
vt 0.399828 0.398779
vt 0.385326 0.413473
vt 0.457719 0.270659
vt 0.405084 0.413469
vt 0.433328 0.419097
vt 0.415461 0.392459
vt 0.422047 0.406731
vt 0.428179 0.271549
vt 0.436491 0.393018
vt 0.421863 0.429399
vt 0.427784 0.442667
vt 0.443046 0.307688
vt 0.425799 0.434227
vt 0.422479 0.435500
vt 0.443092 0.289694
vt 0.442821 0.259255
vt 0.440700 0.271935
vt 0.445325 0.271608
vt 0.442618 0.249676
vt 0.403109 0.384513
vt 0.408626 0.398096
vt 0.407960 0.391845
vt 0.404715 0.393152
vt 0.411773 0.405770
vt 0.417213 0.418810
vt 0.415697 0.411672
vt 0.413131 0.412673
vt 0.416149 0.419585
vt 0.418521 0.418704
vt 0.412605 0.405023
vt 0.407511 0.398713
vt 0.409840 0.397761
vt 0.440702 0.249896
vt 0.405369 0.383975
vt 0.444287 0.258878
vt 0.441364 0.258987
vt 0.440982 0.290309
vt 0.424810 0.443488
vt 0.445524 0.307009
vt 0.429903 0.441403
vt 0.440967 0.307247
vt 0.422958 0.428560
vt 0.415599 0.382921
vt 0.433752 0.254533
vt 0.414707 0.399241
vt 0.425790 0.418519
vt 0.405094 0.403137
vt 0.451700 0.254080
vt 0.393144 0.392091
vt 0.456170 0.291481
vt 0.399477 0.439217
vt 0.410765 0.424349
vt 0.444028 0.421627
vt 0.430039 0.292858
vt 0.420278 0.429550
vt 0.445259 0.289801
vt 0.444610 0.249784
vt 0.401065 0.385761
vt 0.410644 0.405813
vt 0.411906 0.417285
vt 0.435987 0.281546
vt 0.415903 0.415708
vt 0.419852 0.414179
vt 0.450181 0.280734
vt 0.400010 0.422652
vt 0.432359 0.409916
vt 0.443027 0.280884
vt 0.414604 0.416123
vt 0.417114 0.415168
vt 0.440782 0.281031
vt 0.424549 0.412387
vt 0.388947 0.427959
vt 0.457719 0.281046
vt 0.407192 0.419238
vt 0.428353 0.282139
vt 0.444028 0.406206
vt 0.445395 0.280579
vt 0.421695 0.422277
vt 0.447768 0.297582
vt 0.412935 0.434380
vt 0.431188 0.427250
vt 0.443019 0.297147
vt 0.416399 0.424235
vt 0.438684 0.298434
vt 0.418631 0.422083
vt 0.417579 0.422476
vt 0.419617 0.421746
vt 0.441489 0.297212
vt 0.425418 0.423452
vt 0.453418 0.299816
vt 0.410876 0.443877
vt 0.414495 0.427614
vt 0.439139 0.432650
vt 0.433535 0.300984
vt 0.444781 0.296758
vt 0.415837 0.406208
vt 0.448677 0.263236
vt 0.397385 0.405165
vt 0.421786 0.395322
vt 0.442933 0.264418
vt 0.409161 0.408877
vt 0.437086 0.263670
vt 0.413117 0.409019
vt 0.414105 0.408266
vt 0.444816 0.264141
vt 0.440996 0.264371
vt 0.425617 0.385077
vt 0.429917 0.261642
vt 0.418413 0.402194
vt 0.404519 0.407771
vt 0.455712 0.260935
vt 0.387530 0.400403
vt 0.411858 0.409156
s 1
usemtl Material.005
f 98/114/1 29/29/2 4/4/3 42/44/4
f 97/112/5 32/32/6 8/8/7 45/48/8
f 130/150/9 116/134/10 6/6/11 48/51/12
f 95/110/13 38/40/14 2/2/15 28/28/16
f 129/149/17 121/139/18 5/5/19 37/38/20
f 128/147/21 120/138/22 2/2/15 38/40/14
f 127/146/23 117/135/24 20/20/25 50/53/26
f 145/167/27 133/153/28 21/21/29 53/57/30
f 144/165/31 136/156/32 11/11/33 54/59/34
f 126/144/35 118/136/36 19/19/37 49/52/38
f 143/164/39 134/154/40 22/22/41 57/62/42
f 142/163/43 137/157/44 16/16/45 58/63/46
f 86/97/47 59/65/48 10/10/49 40/42/50
f 85/95/51 60/66/52 23/23/53 61/68/54
f 84/93/55 50/53/26 20/20/25 62/69/56
f 125/143/57 119/137/58 18/18/59 36/37/60
f 141/161/61 135/155/62 24/24/63 65/72/64
f 140/160/65 132/152/66 17/17/67 66/73/68
f 80/88/69 67/74/70 15/15/71 33/34/72
f 79/87/73 68/76/74 25/25/75 69/77/76
f 78/86/77 44/47/78 14/14/79 70/78/80
f 77/85/81 71/79/82 12/12/83 30/30/84
f 108/124/85 101/117/86 26/26/87 73/81/88
f 107/123/89 99/115/90 11/11/33 74/82/91
f 101/117/86 107/123/89 74/82/91 26/26/87
f 122/140/92 123/141/93 75/83/94 72/80/95
f 123/141/93 120/138/22 41/43/96 75/83/94
f 102/118/97 108/124/85 73/81/88 9/9/98
f 115/133/99 124/142/100 76/84/101 27/27/102
f 124/142/100 122/140/92 72/80/95 76/84/101
f 39/41/103 77/85/81 30/30/84 3/3/104
f 131/151/105 139/159/106 77/85/81 39/41/103
f 139/159/106 138/158/107 71/79/82 77/85/81
f 68/76/74 78/86/77 70/78/80 25/25/75
f 12/12/83 42/44/4 78/86/77 68/76/74
f 42/44/4 4/4/3 44/47/78 78/86/77
f 31/31/108 79/87/73 69/77/76 13/13/109
f 3/3/104 30/30/84 79/87/73 31/31/108
f 30/30/84 12/12/83 68/76/74 79/87/73
f 43/46/110 80/88/69 33/34/72 7/7/111
f 13/13/109 69/77/76 80/89/69 43/45/110
f 69/77/76 25/25/75 67/75/70 80/89/69
f 135/155/62 140/160/65 66/73/68 24/24/63
f 15/15/71 45/48/8 81/90/112 64/71/113
f 45/48/8 8/8/7 47/50/114 81/90/112
f 137/157/44 141/161/61 65/72/64 16/16/45
f 7/7/111 33/34/72 82/91/115 34/35/116
f 33/34/72 15/15/71 64/71/113 82/91/115
f 121/139/18 125/143/57 36/37/60 5/5/19
f 100/116/117 109/125/118 83/92/119 46/49/120
f 109/125/118 106/122/121 63/70/122 83/92/119
f 60/66/52 84/93/55 62/69/56 23/23/53
f 18/18/59 48/51/12 84/94/55 60/67/52
f 48/51/12 6/6/11 50/54/26 84/94/55
f 37/39/20 85/95/51 61/68/54 19/19/37
f 5/5/19 36/37/60 85/96/51 37/38/20
f 36/37/60 18/18/59 60/67/52 85/96/51
f 49/52/38 86/97/47 40/42/50 1/1/123
f 19/19/37 61/68/54 86/97/47 49/52/38
f 61/68/54 23/23/53 59/65/48 86/97/47
f 134/154/40 142/162/43 58/64/46 22/22/41
f 13/13/109 43/45/110 87/98/124 56/61/125
f 43/46/110 7/7/111 34/35/116 87/99/124
f 131/151/105 143/164/39 57/62/42 9/9/98
f 3/3/104 31/31/108 88/100/126 39/41/103
f 31/31/108 13/13/109 56/61/125 88/100/126
f 115/133/99 126/144/35 49/52/38 1/1/123
f 102/118/97 110/126/127 89/101/128 27/27/102
f 110/126/127 105/121/129 55/60/130 89/101/128
f 133/153/28 144/165/31 54/59/34 21/21/29
f 14/14/79 44/47/78 90/102/131 52/56/132
f 44/47/78 4/4/3 29/29/2 90/102/131
f 132/152/66 145/166/27 53/58/30 17/17/67
f 8/8/7 32/32/6 91/103/133 47/50/114
f 32/33/6 14/14/79 52/56/132 91/104/133
f 116/134/10 127/145/23 50/54/26 6/6/11
f 103/119/134 111/128/135 92/105/136 35/36/137
f 111/127/135 104/120/138 51/55/139 92/106/136
f 117/135/24 128/147/21 38/40/14 20/20/25
f 104/120/138 112/129/140 93/107/141 51/55/139
f 112/129/140 99/115/90 41/43/96 93/107/141
f 118/136/36 129/148/17 37/39/20 19/19/37
f 105/121/129 113/131/142 94/108/143 55/60/130
f 113/130/142 100/116/117 46/49/120 94/109/143
f 59/65/48 95/110/13 28/28/16 10/10/49
f 23/23/53 62/69/56 95/110/13 59/65/48
f 62/69/56 20/20/25 38/40/14 95/110/13
f 119/137/58 130/150/9 48/51/12 18/18/59
f 106/122/121 114/132/144 96/111/145 63/70/122
f 114/132/144 103/119/134 35/36/137 96/111/145
f 67/74/70 97/112/5 45/48/8 15/15/71
f 25/25/75 70/78/80 97/113/5 67/75/70
f 70/78/80 14/14/79 32/33/6 97/113/5
f 71/79/82 98/114/1 42/44/4 12/12/83
f 138/158/107 146/168/146 98/114/1 71/79/82
f 146/168/146 136/156/32 29/29/2 98/114/1
f 66/73/68 17/17/67 103/119/134 114/132/144
f 24/24/63 66/73/68 114/132/144 106/122/121
f 58/63/46 16/16/45 100/116/117 113/130/142
f 22/22/41 58/64/46 113/131/142 105/121/129
f 54/59/34 11/11/33 99/115/90 112/129/140
f 21/21/29 54/59/34 112/129/140 104/120/138
f 53/57/30 21/21/29 104/120/138 111/127/135
f 17/17/67 53/58/30 111/128/135 103/119/134
f 57/62/42 22/22/41 105/121/129 110/126/127
f 9/9/98 57/62/42 110/126/127 102/118/97
f 65/72/64 24/24/63 106/122/121 109/125/118
f 16/16/45 65/72/64 109/125/118 100/116/117
f 27/27/102 76/84/101 108/124/85 102/118/97
f 72/80/95 75/83/94 107/123/89 101/117/86
f 75/83/94 41/43/96 99/115/90 107/123/89
f 76/84/101 72/80/95 101/117/86 108/124/85
f 63/70/122 96/111/145 130/150/9 119/137/58
f 55/60/130 94/108/143 129/148/17 118/136/36
f 51/55/139 93/107/141 128/147/21 117/135/24
f 35/36/137 92/105/136 127/145/23 116/134/10
f 27/27/102 89/101/128 126/144/35 115/133/99
f 46/49/120 83/92/119 125/143/57 121/139/18
f 40/42/50 10/10/49 122/140/92 124/142/100
f 1/1/123 40/42/50 124/142/100 115/133/99
f 28/28/16 2/2/15 120/138/22 123/141/93
f 10/10/49 28/28/16 123/141/93 122/140/92
f 83/92/119 63/70/122 119/137/58 125/143/57
f 89/101/128 55/60/130 118/136/36 126/144/35
f 92/106/136 51/55/139 117/135/24 127/146/23
f 93/107/141 41/43/96 120/138/22 128/147/21
f 94/109/143 46/49/120 121/139/18 129/149/17
f 96/111/145 35/36/137 116/134/10 130/150/9
f 74/82/91 11/11/33 136/156/32 146/168/146
f 26/26/87 74/82/91 146/168/146 138/158/107
f 47/50/114 91/103/133 145/166/27 132/152/66
f 52/56/132 90/102/131 144/165/31 133/153/28
f 39/41/103 88/100/126 143/164/39 131/151/105
f 56/61/125 87/98/124 142/162/43 134/154/40
f 34/35/116 82/91/115 141/161/61 137/157/44
f 64/71/113 81/90/112 140/160/65 135/155/62
f 73/81/88 26/26/87 138/158/107 139/159/106
f 9/9/98 73/81/88 139/159/106 131/151/105
f 81/90/112 47/50/114 132/152/66 140/160/65
f 82/91/115 64/71/113 135/155/62 141/161/61
f 87/99/124 34/35/116 137/157/44 142/163/43
f 88/100/126 56/61/125 134/154/40 143/164/39
f 90/102/131 29/29/2 136/156/32 144/165/31
f 91/104/133 52/56/132 133/153/28 145/167/27
