# Blender 3.4.0
# www.blender.org
mtllib DROPLET.mtl.mtl.mtl
o Cube.003
v -0.054263 0.164516 0.161736
v -0.054263 0.211527 0.161125
v -0.055100 0.167491 0.062684
v -0.055095 0.214737 0.062341
v 0.002236 0.158584 0.172842
v 0.002236 0.207215 0.171410
v 0.003200 0.165686 0.050050
v 0.003179 0.213466 0.049477
v -0.063292 0.162711 0.103904
v -0.058528 0.186761 0.164486
v -0.063291 0.223953 0.103278
v -0.059472 0.190763 0.060411
v -0.025960 0.162921 0.052208
v -0.025975 0.217565 0.051686
v 0.007629 0.189000 0.045708
v 0.011284 0.161792 0.095797
v 0.011325 0.224593 0.094480
v 0.006500 0.180459 0.177134
v -0.026014 0.157145 0.170605
v -0.026014 0.212191 0.169430
v -0.025979 0.237564 0.097363
v -0.026005 0.150650 0.098704
v -0.026014 0.180714 0.180620
v 0.026247 0.192178 0.094766
v -0.025914 0.189310 0.043199
v -0.078246 0.192528 0.106262
v -0.061188 0.162974 0.137775
v -0.056846 0.200591 0.164609
v -0.058997 0.218758 0.072031
v -0.058328 0.176734 0.061187
v -0.043458 0.164427 0.057359
v -0.008405 0.216397 0.048960
v 0.006358 0.174477 0.047123
v 0.007025 0.163123 0.059145
v 0.009166 0.220096 0.140251
v 0.004818 0.166567 0.176996
v -0.009397 0.156553 0.174134
v -0.042631 0.212038 0.166428
v -0.059010 0.165004 0.072450
v -0.056846 0.172978 0.164948
v -0.061188 0.221295 0.137076
v -0.058321 0.205067 0.060998
v -0.008514 0.163074 0.049619
v -0.043421 0.217161 0.056923
v 0.006447 0.203444 0.046712
v 0.009161 0.159875 0.141867
v 0.007137 0.217973 0.058300
v 0.004818 0.195173 0.176149
v -0.042631 0.160383 0.167255
v -0.009397 0.209183 0.172799
v -0.026012 0.232917 0.137767
v -0.025906 0.227607 0.062912
v -0.005794 0.233883 0.095538
v -0.046224 0.233709 0.100361
v -0.026014 0.150895 0.139338
v -0.025987 0.155521 0.063754
v -0.046228 0.154081 0.101364
v -0.005790 0.153324 0.097000
v -0.043629 0.183219 0.175045
v -0.008399 0.179129 0.183042
v -0.026014 0.166577 0.179112
v -0.026014 0.196388 0.178488
v 0.022678 0.188428 0.142761
v 0.017858 0.189729 0.056630
v 0.022204 0.175275 0.095275
v 0.022206 0.209358 0.094524
v -0.007404 0.188544 0.041535
v -0.044534 0.189895 0.049970
v -0.025982 0.174197 0.045522
v -0.025928 0.204591 0.045228
v -0.069815 0.191525 0.074039
v -0.074702 0.191364 0.138113
v -0.074190 0.176209 0.105717
v -0.074190 0.209309 0.105425
v -0.070853 0.207221 0.138373
v -0.070853 0.175675 0.138697
v -0.066909 0.176631 0.073759
v -0.044008 0.204818 0.051606
v -0.044008 0.175535 0.051828
v -0.007849 0.174317 0.043625
v 0.014992 0.205316 0.056981
v 0.015016 0.174842 0.057407
v 0.018829 0.172007 0.143365
v -0.008564 0.195312 0.179540
v -0.008564 0.165462 0.180350
v -0.043464 0.169794 0.172263
v -0.007498 0.157327 0.060758
v -0.044464 0.158429 0.068272
v -0.045124 0.154578 0.138956
v -0.044468 0.225220 0.067644
v -0.007523 0.224640 0.059912
v -0.006902 0.228709 0.139513
v -0.045124 0.229436 0.137824
v -0.006903 0.152627 0.141275
v -0.043464 0.199016 0.171785
v 0.018831 0.204757 0.142411
v -0.007874 0.203766 0.043338
v -0.066906 0.206609 0.073551
v -0.062773 0.223548 0.120826
v 0.010753 0.161052 0.119220
v -0.077483 0.192282 0.122810
v -0.062773 0.162818 0.121515
v 0.010757 0.223369 0.117733
v -0.026011 0.236729 0.117967
v -0.026013 0.150566 0.119468
v 0.025476 0.191074 0.119014
v -0.073971 0.209183 0.121908
v -0.073971 0.176044 0.122226
v 0.021954 0.174608 0.118989
v -0.046164 0.153913 0.120008
v -0.005843 0.233942 0.117111
v -0.046163 0.233620 0.118887
v -0.005859 0.152968 0.118811
v 0.021963 0.208999 0.118096
v -0.057640 0.163451 0.153325
v 0.005612 0.212647 0.160529
v -0.026014 0.223481 0.156673
v -0.026014 0.152669 0.158099
v 0.015925 0.183657 0.164210
v -0.057640 0.216021 0.152664
v 0.005612 0.158428 0.162051
v -0.067952 0.189138 0.153366
v -0.065806 0.204658 0.151905
v -0.065806 0.174813 0.152226
v 0.013778 0.169115 0.162972
v -0.044042 0.156278 0.154286
v -0.007985 0.221047 0.158034
v -0.044042 0.222915 0.153224
v -0.007985 0.153140 0.159734
v 0.013779 0.200233 0.162023
v -0.061788 0.163497 0.086991
v 0.009803 0.221760 0.074254
v -0.026017 0.233799 0.078704
v -0.026006 0.152134 0.079768
v 0.023574 0.191291 0.073305
v -0.061785 0.221987 0.086457
v 0.009815 0.162214 0.075259
v -0.075497 0.192168 0.089651
v -0.072185 0.176282 0.089129
v 0.020248 0.208050 0.073379
v 0.020192 0.174978 0.074026
v -0.006264 0.154339 0.076863
v -0.045727 0.155077 0.083450
v -0.045704 0.230936 0.082623
v -0.006181 0.231156 0.075638
v -0.072185 0.208431 0.088878
vn -0.8469 0.2553 -0.4664
vn -0.6887 0.5743 -0.4426
vn -0.5767 0.4652 -0.6715
vn -0.6794 0.2021 -0.7053
vn 0.0667 0.2188 -0.9735
vn 0.0706 0.5501 -0.8321
vn 0.3834 0.5104 -0.7697
vn 0.4974 0.2219 -0.8386
vn 0.8486 0.2934 0.4403
vn 0.6158 0.6318 0.4708
vn 0.4549 0.5401 0.7080
vn 0.5281 0.2549 0.8101
vn -0.3852 0.2447 0.8898
vn -0.2921 0.5328 0.7942
vn -0.5205 0.4988 0.6930
vn -0.6052 0.2223 0.7644
vn 0.1761 -0.9747 0.1378
vn 0.6388 -0.7452 0.1915
vn 0.5005 -0.6920 0.5203
vn 0.0614 -0.7649 0.6412
vn -0.2713 0.8109 0.5185
vn -0.6224 0.5970 0.5062
vn 0.2282 0.8281 0.5120
vn -0.0307 0.8326 0.5530
vn -0.1078 0.5894 0.8006
vn 0.1004 0.5745 0.8124
vn 0.2917 0.9201 -0.2613
vn -0.0494 0.9594 -0.2775
vn -0.0178 0.9967 -0.0791
vn 0.3381 0.9387 -0.0668
vn -0.3662 0.8949 -0.2552
vn -0.6981 0.6764 -0.2348
vn -0.6950 0.7163 -0.0616
vn -0.3615 0.9296 -0.0716
vn -0.3524 -0.9106 0.2158
vn -0.1151 -0.9726 0.2021
vn -0.2156 -0.7639 0.6082
vn -0.4157 -0.6580 0.6279
vn -0.3389 -0.9298 -0.1433
vn -0.0452 -0.9891 -0.1399
vn -0.0246 -0.9990 -0.0383
vn -0.3286 -0.9438 -0.0363
vn 0.2661 -0.9564 -0.1205
vn 0.6454 -0.7533 -0.1264
vn 0.6509 -0.7583 -0.0362
vn 0.2918 -0.9558 -0.0365
vn -0.4587 -0.2591 0.8500
vn -0.4228 0.0061 0.9062
vn -0.6990 0.0038 0.7151
vn -0.6594 -0.2313 0.7153
vn 0.0963 -0.2788 0.9555
vn 0.1070 0.0102 0.9942
vn -0.2124 0.0074 0.9772
vn -0.2409 -0.2915 0.9257
vn 0.1052 0.2681 0.9576
vn -0.1797 0.2727 0.9452
vn 0.8882 -0.3026 0.3457
vn 0.8955 0.0031 0.4451
vn 0.6380 0.0078 0.7700
vn 0.5573 -0.2613 0.7881
vn 0.9186 -0.3506 -0.1824
vn 0.9768 -0.0039 -0.2142
vn 0.9990 -0.0019 -0.0447
vn 0.9297 -0.3659 -0.0411
vn 0.9160 0.3288 -0.2298
vn 0.6663 0.7091 -0.2306
vn 0.6905 0.7214 -0.0534
vn 0.9356 0.3497 -0.0474
vn 0.0656 -0.2529 -0.9653
vn 0.0889 -0.0112 -0.9960
vn 0.5335 -0.0103 -0.8458
vn 0.5113 -0.2580 -0.8198
vn -0.4417 -0.2331 -0.8663
vn -0.4503 -0.0071 -0.8928
vn -0.2105 -0.0085 -0.9776
vn -0.2209 -0.2622 -0.9394
vn -0.4285 0.2096 -0.8789
vn -0.3826 0.5095 -0.7707
vn -0.1726 0.5569 -0.8124
vn -0.2080 0.2316 -0.9503
vn -0.8542 -0.2717 -0.4433
vn -0.8958 -0.0035 -0.4445
vn -0.7015 -0.0052 -0.7126
vn -0.6902 -0.2200 -0.6893
vn -0.9264 -0.3664 0.0869
vn -0.9936 -0.0007 0.1126
vn -0.9987 -0.0017 -0.0500
vn -0.9294 -0.3652 -0.0543
vn -0.9280 0.3556 0.1116
vn -0.6802 0.7247 0.1104
vn -0.9341 0.3517 -0.0606
vn -0.8607 0.0003 0.5091
vn -0.8201 0.2788 0.4996
vn -0.8920 0.3320 0.3069
vn -0.9620 -0.0001 0.2731
vn -0.6614 0.6931 0.2866
vn -0.6559 -0.7532 0.0498
vn -0.6624 -0.7480 -0.0410
vn -0.6845 -0.6585 0.3129
vn -0.8542 -0.2868 0.4336
vn -0.9063 -0.3422 0.2481
vn -0.6692 -0.7297 0.1401
vn -0.6916 -0.6188 -0.3724
vn -0.5926 -0.5109 -0.6227
vn -0.6776 -0.7160 -0.1681
vn -0.9163 -0.3326 -0.2233
vn -0.9733 -0.0025 -0.2295
vn -0.4015 -0.5686 -0.7180
vn -0.1906 -0.6330 -0.7503
vn 0.0612 -0.6343 -0.7707
vn 0.3995 -0.5882 -0.7032
vn 0.8160 0.2740 -0.5090
vn 0.8732 -0.0079 -0.4873
vn 0.6074 0.6363 -0.4756
vn 0.8322 -0.3028 -0.4644
vn 0.6148 -0.7051 -0.3533
vn 0.6476 -0.7620 0.0021
vn 0.9308 -0.3631 0.0417
vn 0.9263 -0.3474 0.1460
vn 0.6459 -0.7622 0.0425
vn 0.9972 -0.0010 0.0751
vn 0.9802 0.0009 0.1979
vn -0.6183 -0.5817 0.5285
vn 0.1770 -0.9257 -0.3343
vn -0.1031 -0.9214 -0.3746
vn -0.3453 -0.8712 -0.3490
vn -0.3310 -0.9434 0.0217
vn -0.3398 -0.9368 0.0833
vn -0.0293 -0.9996 0.0040
vn -0.0563 -0.9972 0.0502
vn -0.3514 0.8077 -0.4734
vn -0.0985 0.8458 -0.5243
vn 0.1873 0.8468 -0.4978
vn 0.6912 0.7144 0.1094
vn 0.3503 0.9299 0.1126
vn 0.3171 0.8979 0.3053
vn 0.6738 0.6891 0.2669
vn 0.0004 0.9931 0.1170
vn 0.0002 0.9480 0.3182
vn -0.3441 0.9324 0.1100
vn -0.3120 0.8990 0.3074
vn 0.2870 -0.9579 -0.0077
vn 0.2529 -0.9673 0.0212
vn 0.9326 0.3488 0.0922
vn 0.9103 0.3330 0.2459
vn -0.9158 0.3172 -0.2463
vt 0.421952 0.424547
vt 0.417876 0.425992
vt 0.412040 0.401244
vt 0.408380 0.402729
vt 0.440166 0.302032
vt 0.446433 0.301511
vt 0.439969 0.254873
vt 0.445522 0.254709
vt 0.418008 0.409974
vt 0.419921 0.425104
vt 0.410255 0.413040
vt 0.410353 0.402320
vt 0.410765 0.391722
vt 0.402644 0.395050
vt 0.442759 0.255200
vt 0.436047 0.271813
vt 0.449901 0.271161
vt 0.443007 0.301849
vt 0.428301 0.431763
vt 0.418464 0.435592
vt 0.396999 0.413610
vt 0.428084 0.401226
vt 0.424352 0.435050
vt 0.443000 0.271817
vt 0.406220 0.392254
vt 0.414508 0.412374
vt 0.421005 0.418273
vt 0.419114 0.425707
vt 0.408664 0.405273
vt 0.411223 0.401887
vt 0.411654 0.397864
vt 0.447496 0.250654
vt 0.398221 0.387917
vt 0.441469 0.255122
vt 0.438723 0.257970
vt 0.449408 0.289867
vt 0.441799 0.302256
vt 0.438079 0.306148
vt 0.432745 0.438902
vt 0.418286 0.429533
vt 0.413633 0.403268
vt 0.420953 0.425098
vt 0.414006 0.420956
vt 0.409418 0.402619
vt 0.409000 0.383568
vt 0.437787 0.250875
vt 0.406280 0.400044
vt 0.443999 0.255056
vt 0.436999 0.290800
vt 0.446817 0.257719
vt 0.444421 0.301987
vt 0.424188 0.427334
vt 0.420375 0.443903
vt 0.448819 0.305542
vt 0.405499 0.429997
vt 0.399828 0.398779
vt 0.385326 0.413473
vt 0.457719 0.270659
vt 0.405084 0.413469
vt 0.433328 0.419097
vt 0.415461 0.392459
vt 0.422047 0.406731
vt 0.428179 0.271549
vt 0.436491 0.393018
vt 0.421863 0.429399
vt 0.427784 0.442667
vt 0.443046 0.307688
vt 0.425799 0.434227
vt 0.422479 0.435500
vt 0.443092 0.289694
vt 0.442821 0.259255
vt 0.440700 0.271935
vt 0.445325 0.271608
vt 0.442618 0.249676
vt 0.403109 0.384513
vt 0.408626 0.398096
vt 0.407960 0.391845
vt 0.404715 0.393152
vt 0.411773 0.405770
vt 0.417213 0.418810
vt 0.415697 0.411672
vt 0.413131 0.412673
vt 0.416149 0.419585
vt 0.418521 0.418704
vt 0.412605 0.405023
vt 0.407511 0.398713
vt 0.409840 0.397761
vt 0.440702 0.249896
vt 0.405369 0.383975
vt 0.444287 0.258878
vt 0.441364 0.258987
vt 0.440982 0.290309
vt 0.424810 0.443488
vt 0.445524 0.307009
vt 0.429903 0.441403
vt 0.440967 0.307247
vt 0.422958 0.428560
vt 0.415599 0.382921
vt 0.433752 0.254533
vt 0.414707 0.399241
vt 0.425790 0.418519
vt 0.405094 0.403137
vt 0.451700 0.254080
vt 0.393144 0.392091
vt 0.456170 0.291481
vt 0.399477 0.439217
vt 0.410765 0.424349
vt 0.444028 0.421627
vt 0.430039 0.292858
vt 0.420278 0.429550
vt 0.445259 0.289801
vt 0.444610 0.249784
vt 0.401065 0.385761
vt 0.410644 0.405813
vt 0.411906 0.417285
vt 0.435987 0.281546
vt 0.415903 0.415708
vt 0.419852 0.414179
vt 0.450181 0.280734
vt 0.400010 0.422652
vt 0.432359 0.409916
vt 0.443027 0.280884
vt 0.414604 0.416123
vt 0.417114 0.415168
vt 0.440782 0.281031
vt 0.424549 0.412387
vt 0.388947 0.427959
vt 0.457719 0.281046
vt 0.407192 0.419238
vt 0.428353 0.282139
vt 0.444028 0.406206
vt 0.445395 0.280579
vt 0.421695 0.422277
vt 0.447768 0.297582
vt 0.412935 0.434380
vt 0.431188 0.427250
vt 0.443019 0.297147
vt 0.416399 0.424235
vt 0.438684 0.298434
vt 0.418631 0.422083
vt 0.417579 0.422476
vt 0.419617 0.421746
vt 0.441489 0.297212
vt 0.425418 0.423452
vt 0.453418 0.299816
vt 0.410876 0.443877
vt 0.414495 0.427614
vt 0.439139 0.432650
vt 0.433535 0.300984
vt 0.444781 0.296758
vt 0.415837 0.406208
vt 0.448677 0.263236
vt 0.397385 0.405165
vt 0.421786 0.395322
vt 0.442933 0.264418
vt 0.409161 0.408877
vt 0.437086 0.263670
vt 0.413117 0.409019
vt 0.414105 0.408266
vt 0.444816 0.264141
vt 0.440996 0.264371
vt 0.425617 0.385077
vt 0.429917 0.261642
vt 0.418413 0.402194
vt 0.404519 0.407771
vt 0.455712 0.260935
vt 0.387530 0.400403
vt 0.411858 0.409156
s 1
usemtl Material.005
f 98/114/1 29/29/2 4/4/3 42/44/4
f 97/112/5 32/32/6 8/8/7 45/48/8
f 130/150/9 116/134/10 6/6/11 48/51/12
f 95/110/13 38/40/14 2/2/15 28/28/16
f 129/149/17 121/139/18 5/5/19 37/38/20
f 128/147/21 120/138/22 2/2/15 38/40/14
f 127/146/23 117/135/24 20/20/25 50/53/26
f 145/167/27 133/153/28 21/21/29 53/57/30
f 144/165/31 136/156/32 11/11/33 54/59/34
f 126/144/35 118/136/36 19/19/37 49/52/38
f 143/164/39 134/154/40 22/22/41 57/62/42
f 142/163/43 137/157/44 16/16/45 58/63/46
f 86/97/47 59/65/48 10/10/49 40/42/50
f 85/95/51 60/66/52 23/23/53 61/68/54
f 84/93/55 50/53/26 20/20/25 62/69/56
f 125/143/57 119/137/58 18/18/59 36/37/60
f 141/161/61 135/155/62 24/24/63 65/72/64
f 140/160/65 132/152/66 17/17/67 66/73/68
f 80/88/69 67/74/70 15/15/71 33/34/72
f 79/87/73 68/76/74 25/25/75 69/77/76
f 78/86/77 44/47/78 14/14/79 70/78/80
f 77/85/81 71/79/82 12/12/83 30/30/84
f 108/124/85 101/117/86 26/26/87 73/81/88
f 107/123/89 99/115/90 11/11/33 74/82/91
f 101/117/86 107/123/89 74/82/91 26/26/87
f 122/140/92 123/141/93 75/83/94 72/80/95
f 123/141/93 120/138/22 41/43/96 75/83/94
f 102/118/97 108/124/85 73/81/88 9/9/98
f 115/133/99 124/142/100 76/84/101 27/27/102
f 124/142/100 122/140/92 72/80/95 76/84/101
f 39/41/103 77/85/81 30/30/84 3/3/104
f 131/151/105 139/159/106 77/85/81 39/41/103
f 139/159/106 138/158/107 71/79/82 77/85/81
f 68/76/74 78/86/77 70/78/80 25/25/75
f 12/12/83 42/44/4 78/86/77 68/76/74
f 42/44/4 4/4/3 44/47/78 78/86/77
f 31/31/108 79/87/73 69/77/76 13/13/109
f 3/3/104 30/30/84 79/87/73 31/31/108
f 30/30/84 12/12/83 68/76/74 79/87/73
f 43/46/110 80/88/69 33/34/72 7/7/111
f 13/13/109 69/77/76 80/89/69 43/45/110
f 69/77/76 25/25/75 67/75/70 80/89/69
f 135/155/62 140/160/65 66/73/68 24/24/63
f 15/15/71 45/48/8 81/90/112 64/71/113
f 45/48/8 8/8/7 47/50/114 81/90/112
f 137/157/44 141/161/61 65/72/64 16/16/45
f 7/7/111 33/34/72 82/91/115 34/35/116
f 33/34/72 15/15/71 64/71/113 82/91/115
f 121/139/18 125/143/57 36/37/60 5/5/19
f 100/116/117 109/125/118 83/92/119 46/49/120
f 109/125/118 106/122/121 63/70/122 83/92/119
f 60/66/52 84/93/55 62/69/56 23/23/53
f 18/18/59 48/51/12 84/94/55 60/67/52
f 48/51/12 6/6/11 50/54/26 84/94/55
f 37/39/20 85/95/51 61/68/54 19/19/37
f 5/5/19 36/37/60 85/96/51 37/38/20
f 36/37/60 18/18/59 60/67/52 85/96/51
f 49/52/38 86/97/47 40/42/50 1/1/123
f 19/19/37 61/68/54 86/97/47 49/52/38
f 61/68/54 23/23/53 59/65/48 86/97/47
f 134/154/40 142/162/43 58/64/46 22/22/41
f 13/13/109 43/45/110 87/98/124 56/61/125
f 43/46/110 7/7/111 34/35/116 87/99/124
f 131/151/105 143/164/39 57/62/42 9/9/98
f 3/3/104 31/31/108 88/100/126 39/41/103
f 31/31/108 13/13/109 56/61/125 88/100/126
f 115/133/99 126/144/35 49/52/38 1/1/123
f 102/118/97 110/126/127 89/101/128 27/27/102
f 110/126/127 105/121/129 55/60/130 89/101/128
f 133/153/28 144/165/31 54/59/34 21/21/29
f 14/14/79 44/47/78 90/102/131 52/56/132
f 44/47/78 4/4/3 29/29/2 90/102/131
f 132/152/66 145/166/27 53/58/30 17/17/67
f 8/8/7 32/32/6 91/103/133 47/50/114
f 32/33/6 14/14/79 52/56/132 91/104/133
f 116/134/10 127/145/23 50/54/26 6/6/11
f 103/119/134 111/128/135 92/105/136 35/36/137
f 111/127/135 104/120/138 51/55/139 92/106/136
f 117/135/24 128/147/21 38/40/14 20/20/25
f 104/120/138 112/129/140 93/107/141 51/55/139
f 112/129/140 99/115/90 41/43/96 93/107/141
f 118/136/36 129/148/17 37/39/20 19/19/37
f 105/121/129 113/131/142 94/108/143 55/60/130
f 113/130/142 100/116/117 46/49/120 94/109/143
f 59/65/48 95/110/13 28/28/16 10/10/49
f 23/23/53 62/69/56 95/110/13 59/65/48
f 62/69/56 20/20/25 38/40/14 95/110/13
f 119/137/58 130/150/9 48/51/12 18/18/59
f 106/122/121 114/132/144 96/111/145 63/70/122
f 114/132/144 103/119/134 35/36/137 96/111/145
f 67/74/70 97/112/5 45/48/8 15/15/71
f 25/25/75 70/78/80 97/113/5 67/75/70
f 70/78/80 14/14/79 32/33/6 97/113/5
f 71/79/82 98/114/1 42/44/4 12/12/83
f 138/158/107 146/168/146 98/114/1 71/79/82
f 146/168/146 136/156/32 29/29/2 98/114/1
f 66/73/68 17/17/67 103/119/134 114/132/144
f 24/24/63 66/73/68 114/132/144 106/122/121
f 58/63/46 16/16/45 100/116/117 113/130/142
f 22/22/41 58/64/46 113/131/142 105/121/129
f 54/59/34 11/11/33 99/115/90 112/129/140
f 21/21/29 54/59/34 112/129/140 104/120/138
f 53/57/30 21/21/29 104/120/138 111/127/135
f 17/17/67 53/58/30 111/128/135 103/119/134
f 57/62/42 22/22/41 105/121/129 110/126/127
f 9/9/98 57/62/42 110/126/127 102/118/97
f 65/72/64 24/24/63 106/122/121 109/125/118
f 16/16/45 65/72/64 109/125/118 100/116/117
f 27/27/102 76/84/101 108/124/85 102/118/97
f 72/80/95 75/83/94 107/123/89 101/117/86
f 75/83/94 41/43/96 99/115/90 107/123/89
f 76/84/101 72/80/95 101/117/86 108/124/85
f 63/70/122 96/111/145 130/150/9 119/137/58
f 55/60/130 94/108/143 129/148/17 118/136/36
f 51/55/139 93/107/141 128/147/21 117/135/24
f 35/36/137 92/105/136 127/145/23 116/134/10
f 27/27/102 89/101/128 126/144/35 115/133/99
f 46/49/120 83/92/119 125/143/57 121/139/18
f 40/42/50 10/10/49 122/140/92 124/142/100
f 1/1/123 40/42/50 124/142/100 115/133/99
f 28/28/16 2/2/15 120/138/22 123/141/93
f 10/10/49 28/28/16 123/141/93 122/140/92
f 83/92/119 63/70/122 119/137/58 125/143/57
f 89/101/128 55/60/130 118/136/36 126/144/35
f 92/106/136 51/55/139 117/135/24 127/146/23
f 93/107/141 41/43/96 120/138/22 128/147/21
f 94/109/143 46/49/120 121/139/18 129/149/17
f 96/111/145 35/36/137 116/134/10 130/150/9
f 74/82/91 11/11/33 136/156/32 146/168/146
f 26/26/87 74/82/91 146/168/146 138/158/107
f 47/50/114 91/103/133 145/166/27 132/152/66
f 52/56/132 90/102/131 144/165/31 133/153/28
f 39/41/103 88/100/126 143/164/39 131/151/105
f 56/61/125 87/98/124 142/162/43 134/154/40
f 34/35/116 82/91/115 141/161/61 137/157/44
f 64/71/113 81/90/112 140/160/65 135/155/62
f 73/81/88 26/26/87 138/158/107 139/159/106
f 9/9/98 73/81/88 139/159/106 131/151/105
f 81/90/112 47/50/114 132/152/66 140/160/65
f 82/91/115 64/71/113 135/155/62 141/161/61
f 87/99/124 34/35/116 137/157/44 142/163/43
f 88/100/126 56/61/125 134/154/40 143/164/39
f 90/102/131 29/29/2 136/156/32 144/165/31
f 91/104/133 52/56/132 133/153/28 145/167/27
